<?xml version="1.0" encoding="UTF-8"?>
<svg id="Layer_2" data-name="Layer 2" xmlns="http://www.w3.org/2000/svg" viewBox="0 0 305 82.21">
  <defs>
    <style>
      .cls-1 {
        fill: #fff;
      }

      .cls-2 {
        opacity: .9;
      }
    </style>
  </defs>
  <g id="Layer_1-2" data-name="Layer 1">
    <g class="cls-2">
      <path class="cls-1" d="m81.06,2.05c-7.07,2.82-12.11,7.71-15.11,14.68-3,6.97-3.09,13.99-.27,21.06,2.82,7.07,7.71,12.11,14.68,15.11,6.97,3,13.99,3.09,21.06.27,7.07-2.82,12.11-7.71,15.11-14.68l.03-.08s2.1-6.04-3.26-7.8c-5.16-1.7-7.56,3.09-7.59,3.13,0,0,0,0,0,0l-.02.04c-1.42,3.29-3.85,6.1-7.05,7.71-4.57,2.31-9.11,2.5-13.62.56-2.67-1.15-4.8-2.83-6.4-5.04-.04-.05-.02-.13.05-.16l35.93-14.32c1.97-.79,3.02-3.01,2.24-4.99-.02-.04-.03-.08-.05-.12-2.82-7.07-7.71-12.11-14.68-15.11-6.97-3-13.99-3.09-21.06-.27Zm19.77,13.28l-24.99,9.96c-.07.03-.15-.03-.14-.11.15-.95.39-1.9.74-2.86,1.67-4.6,5.46-8.22,10.12-9.72,3.65-1.17,7.28-.98,10.9.57,1.27.55,2.4,1.21,3.4,1.98.06.05.05.15-.03.18Z"/>
    </g>
    <g class="cls-2">
      <path class="cls-1" d="m179.01,53.12c.73-.67,1.25-2.14,1.25-2.94v-22.66c0-7.61-2.68-14.11-8.05-19.47-5.36-5.36-11.85-8.05-19.47-8.05s-14.11,2.68-19.47,8.05c-5.36,5.36-8.05,11.85-8.05,19.47s2.68,14.1,8.05,19.47c5.36,5.36,11.85,8.05,19.47,8.05,5.94,0,11.18-1.62,15.72-4.85,0,.84.65,2.27,1.39,3.03,1.88,1.91,6.6,2.25,9.15-.08Zm-10.66-24.57c-.19,3.44-1.56,6.76-3.86,9.32-3.44,3.84-7.73,5.61-12.87,5.33-3.44-.19-6.75-1.56-9.32-3.86-3.84-3.44-5.61-7.73-5.33-12.87.19-3.44,1.56-6.76,3.87-9.32,3.44-3.83,7.73-5.61,12.87-5.33,3.44.19,6.75,1.56,9.32,3.86,3.84,3.44,5.62,7.73,5.34,12.87Z"/>
    </g>
    <g class="cls-2">
      <path class="cls-1" d="m28,0c-7.75,0-14.35,2.73-19.81,8.19C2.73,13.65,0,20.25,0,28v21.89c0,3,2.43,5.44,5.44,5.44h.76c3.21,0,5.8-2.6,5.8-5.8v-21.62c0-4.98,1.99-9.14,5.96-12.48,2.37-1.99,5.34-3.2,8.42-3.45,5.84-.48,10.62,1.59,14.35,6.2,2.18,2.69,3.27,6.1,3.27,9.56,0,6.96,0,20.01,0,20.01,0,2.34.97,4.62,2.77,6.11,4.33,3.6,9.23.59,9.23-3.56v-22.29c0-7.75-2.73-14.35-8.19-19.81C42.35,2.73,35.75,0,28,0Z"/>
    </g>
    <g class="cls-2">
      <path class="cls-1" d="m237.86,8.25l-.06-.06c-5.46-5.46-12.06-8.19-19.81-8.19s-14.35,2.73-19.81,8.19c-5.46,5.46-8.19,12.06-8.19,19.81v22.31c0,3.14,2.54,5.68,5.68,5.68h.21c3.37,0,6.11-2.73,6.11-6.11v-21.92c0-3.69,1.22-7.31,3.61-10.11,3.69-4.34,8.38-6.26,14.07-5.78,3.62.31,7,1.98,9.56,4.55.08.08.12.13.12.13,0,0,4.74,4.42,8.94.4,4.66-4.46-.44-8.9-.44-8.9Z"/>
    </g>
    <g class="cls-2">
      <path class="cls-1" d="m300.91.29c-4.13-1.28-7.91,1.77-7.91,5.71v21.67c0,5.09-2.14,9.29-6.41,12.6-1.88,1.45-4.12,2.41-6.47,2.72-5.38.71-9.87-.71-13.48-4.27-3.04-3-4.63-7.17-4.63-11.44V6.09c0-2.6-1.6-5.03-4.09-5.8-4.13-1.28-7.91,1.77-7.91,5.71v21.64c0,7.57,2.67,14.03,8,19.36,5.33,5.33,11.79,8,19.36,8,5.9,0,11.12-1.61,15.64-4.83v7.6c0,1.14-.3,2.27-.86,3.27-3.29,5.86-7.67,9.11-13.13,9.74-1.13.13-2,1.06-2,2.2v3.59c0,3.58,3.32,6.32,6.8,5.49,4.89-1.16,9.22-3.63,13.01-7.42,5.46-5.46,8.19-12.06,8.19-19.81V6.09c0-2.6-1.6-5.03-4.09-5.8Z"/>
    </g>
  </g>
</svg>